<!DOCTYPE svg PUBLIC "-//W3C//DTD SVG 20010904//EN" "http://www.w3.org/TR/2001/REC-SVG-20010904/DTD/svg10.dtd">
<svg version="1.0" xmlns="http://www.w3.org/2000/svg" width="335px" height="335px" viewBox="0 0 3350 3350" preserveAspectRatio="xMidYMid meet">
<g id="layer1" fill="#080808" stroke="none">
 <path d="M845 2478 c-36 -99 -46 -231 -21 -277 14 -25 14 -192 2 -672 l-5 -166 33 -54 c21 -35 40 -55 54 -57 13 -2 30 -14 38 -28 11 -16 26 -24 45 -24 33 0 36 -7 13 -24 -24 -18 -8 -57 34 -87 25 -18 55 -28 96 -32 32 -3 82 -17 109 -31 51 -25 86 -25 52 1 -11 7 -14 13 -8 13 7 0 15 -4 18 -10 3 -5 47 -10 97 -10 81 0 90 -2 95 -20 6 -22 30 -25 82 -10 42 12 125 -5 149 -30 21 -23 96 -50 140 -50 21 0 32 -5 32 -15 0 -12 6 -12 43 2 32 12 88 17 227 20 223 5 245 11 254 75 10 62 10 87 1 249 l-8 146 26 38 c19 29 24 43 17 56 -17 31 -11 39 29 39 54 0 91 36 91 89 0 35 -19 71 -38 71 -11 0 -32 51 -32 77 0 13 -17 41 -40 65 -38 41 -51 68 -31 68 6 0 13 -4 16 -10 9 -14 45 -32 45 -23 0 5 -12 21 -26 36 -18 20 -25 36 -21 53 4 21 -3 30 -35 50 -22 14 -47 39 -56 56 -10 17 -26 42 -38 57 -11 14 -38 69 -59 121 -21 52 -42 99 -46 104 -5 6 -9 20 -9 33 0 23 -31 44 -70 48 -59 7 -199 27 -219 31 -23 5 -23 6 -5 20 17 14 10 15 -76 8 -52 -3 -279 -8 -505 -9 -329 -2 -415 1 -437 11 -34 17 -47 18 -53 2z m575 -47 c89 -11 33 -19 -173 -26 -129 -4 -187 -3 -182 4 3 6 20 15 38 20 37 11 237 12 317 2z m533 -38 c-18 -2 -48 -2 -65 0 -18 2 -4 4 32 4 36 0 50 -2 33 -4z m208 -23 c5 -8 20 -46 35 -85 15 -38 39 -88 54 -110 15 -22 57 -101 94 -175 36 -74 88 -177 115 -228 28 -52 48 -99 45 -106 -3 -7 -20 -20 -39 -29 -19 -9 -35 -21 -35 -25 0 -5 -13 -25 -29 -45 l-28 -36 3 -237 c2 -130 1 -240 -2 -245 -9 -16 -52 22 -85 74 -18 29 -34 53 -35 55 -1 2 -19 5 -39 7 -20 2 -38 5 -41 8 -2 2 -1 163 4 358 5 195 7 383 4 419 -2 36 2 95 9 132 10 58 10 70 -2 85 -9 10 -21 32 -28 48 -12 27 -14 28 -21 10 -4 -11 -3 -21 1 -23 19 -7 8 -23 -13 -20 -21 3 -23 9 -26 72 -2 53 1 73 14 87 15 17 14 18 -32 22 -42 3 -41 4 10 3 41 -1 61 -5 67 -16z m-419 -7 c14 -12 112 -24 213 -27 l60 -1 -3 -65 c-5 -133 -7 -651 -2 -835 l5 -190 -70 -16 c-49 -12 -92 -16 -146 -12 -51 4 -78 2 -83 -6 -11 -17 -187 -15 -211 3 -13 9 -27 11 -42 5 -12 -4 -110 -8 -217 -8 -107 1 -199 -2 -205 -5 -5 -4 -12 -2 -15 3 -10 16 36 21 203 21 110 0 182 5 220 15 31 8 72 17 91 20 38 7 47 12 36 22 -3 4 -46 -1 -94 -10 -60 -12 -96 -15 -117 -9 -25 8 -27 11 -12 17 37 16 12 20 -100 17 -147 -5 -263 19 -263 53 0 14 -3 16 -9 7 -9 -14 -21 134 -21 258 0 41 -5 153 -12 247 -9 123 -9 188 -2 224 9 41 8 52 -3 56 -8 3 -13 19 -13 37 0 17 -2 64 -6 104 l-7 72 34 0 c19 0 50 -5 69 -10 24 -7 49 -7 82 1 45 10 93 8 58 -3 -78 -25 -104 -36 -108 -47 -3 -8 4 -10 22 -5 15 3 46 8 69 9 23 2 67 10 97 19 51 15 116 25 295 44 96 11 191 8 207 -5z m370 -383 l-9 -85 -2 115 c0 63 3 126 7 140 11 40 14 -71 4 -170z m14 -521 c11 -12 14 -39 12 -109 -3 -99 -18 -127 -39 -73 -14 35 -13 211 2 243 1 3 4 -6 6 -20 3 -14 11 -32 19 -41z m-1203 -129 c7 -1 1 -7 -13 -14 -14 -8 -28 -12 -32 -10 -14 9 -9 39 10 62 l17 21 3 -29 c2 -17 9 -30 15 -30z m82 -40 l30 -8 -30 0 c-16 0 -41 4 -55 8 l-25 8 25 0 c14 0 39 -4 55 -8z m243 -37 c-15 -2 -42 -2 -60 0 -18 2 -6 4 27 4 33 0 48 -2 33 -4z m976 -146 c29 -40 67 -86 85 -104 l33 -31 -83 5 c-46 3 -92 9 -102 12 -22 8 -197 -5 -246 -19 -60 -17 -109 -13 -121 10 -6 12 -21 20 -35 20 -13 0 -62 9 -107 19 -99 23 -186 36 -212 33 -23 -3 -288 35 -339 49 -21 5 -41 17 -44 25 -3 7 -12 14 -21 14 -8 0 -13 3 -10 6 4 3 23 1 43 -5 29 -8 44 -7 65 4 20 10 95 15 301 19 151 3 296 8 324 10 28 3 44 1 36 -3 -9 -6 -10 -10 -2 -15 6 -4 27 2 45 13 38 24 175 42 222 29 20 -5 33 -3 43 7 21 20 59 -10 125 -98z"/>
 <path d="M1440 2216 c-76 -29 -87 -35 -128 -80 -23 -25 -42 -50 -42 -55 0 -5 -16 -28 -35 -51 -27 -32 -35 -51 -35 -82 l0 -39 29 20 c18 13 32 36 40 63 10 40 26 63 107 156 27 31 37 36 90 40 56 4 79 16 68 34 -8 12 -54 9 -94 -6z"/>
 <path d="M1580 2205 c0 -12 14 -15 69 -15 47 0 72 -4 80 -14 7 -8 35 -17 64 -21 87 -11 87 -11 87 -65 0 -27 5 -52 10 -55 7 -5 10 16 8 62 l-3 68 -69 3 c-56 2 -69 6 -73 21 -5 21 -47 31 -125 31 -36 0 -48 -4 -48 -15z"/>
 <path d="M1873 1953 c-7 -12 -13 -34 -13 -50 0 -45 -47 -134 -93 -175 -86 -78 -109 -89 -193 -94 -97 -5 -109 -9 -134 -44 -23 -32 -34 -34 -205 -50 -87 -8 -113 -14 -129 -30 -39 -38 -11 -45 187 -45 105 0 199 -5 222 -12 61 -17 227 -25 281 -13 62 14 139 50 128 59 -21 19 -75 29 -106 20 -18 -5 -82 -9 -142 -9 -86 0 -113 -3 -127 -16 -16 -15 -18 -12 -24 39 -4 31 -4 60 0 66 3 6 38 11 80 11 61 0 76 3 87 19 7 10 39 35 71 55 47 30 63 48 79 84 11 26 26 62 34 80 9 18 14 53 12 80 -3 43 -4 45 -15 25z m-413 -423 c0 -12 -24 -12 -60 0 -21 7 -19 8 18 9 23 1 42 -3 42 -9z m-133 -25 c-24 -18 -159 -31 -183 -17 -16 9 -14 11 16 16 74 12 87 13 135 14 45 1 48 0 32 -13z m483 -35 c0 -6 -32 -10 -75 -10 -43 0 -75 4 -75 10 0 6 32 10 75 10 43 0 75 -4 75 -10z"/>
 <path d="M1230 1868 c0 -54 41 -148 78 -178 40 -33 91 -40 111 -16 15 18 -5 31 -65 40 -34 6 -44 13 -60 44 -10 20 -23 57 -29 81 -11 49 -35 68 -35 29z"/>
 <path d="M1685 1264 c-60 -7 -128 -18 -150 -23 -39 -10 -38 -10 15 -6 30 2 93 9 140 15 47 6 121 15 165 19 l80 8 -70 0 c-38 0 -119 -6 -180 -13z"/>
 </g>
<g id="layer2" fill="#999999" stroke="none">
 <path d="M1435 3274 c-374 -56 -696 -220 -945 -481 -52 -55 -121 -136 -154 -181 -116 -164 -215 -393 -263 -612 -26 -123 -26 -497 1 -620 51 -235 153 -465 285 -640 91 -121 241 -269 359 -354 164 -116 393 -215 612 -263 123 -26 497 -26 620 0 646 141 1116 611 1256 1257 27 123 27 497 1 620 -139 637 -598 1103 -1232 1251 -73 17 -131 21 -300 24 -115 2 -223 1 -240 -1z m-537 -798 c22 -10 108 -13 437 -11 226 1 453 6 505 9 86 7 93 6 76 -8 -18 -14 -18 -15 5 -20 20 -4 160 -24 219 -31 39 -4 70 -25 70 -48 0 -13 4 -27 9 -33 4 -5 25 -52 46 -104 21 -52 48 -107 59 -121 12 -15 28 -40 38 -57 9 -17 34 -42 56 -56 32 -20 39 -29 35 -50 -4 -17 3 -33 21 -53 14 -15 26 -31 26 -36 0 -9 -36 9 -45 23 -3 6 -10 10 -16 10 -20 0 -7 -27 31 -68 23 -24 40 -52 40 -65 0 -26 21 -77 32 -77 19 0 38 -36 38 -71 0 -53 -37 -89 -91 -89 -40 0 -46 -8 -29 -39 7 -13 2 -27 -17 -56 l-26 -38 8 -146 c9 -162 9 -187 -1 -249 -9 -64 -31 -70 -254 -75 -139 -3 -195 -8 -227 -20 -37 -14 -43 -14 -43 -2 0 10 -11 15 -32 15 -44 0 -119 27 -140 50 -24 25 -107 42 -149 30 -52 -15 -76 -12 -82 10 -5 18 -14 20 -95 20 -50 0 -94 5 -97 10 -3 6 -11 10 -18 10 -6 0 -3 -6 8 -13 34 -26 -1 -26 -52 -1 -27 14 -77 28 -109 31 -41 4 -71 14 -96 32 -42 30 -58 69 -34 87 23 17 20 24 -13 24 -19 0 -34 8 -45 24 -8 14 -25 26 -38 28 -14 2 -33 22 -54 57 l-33 54 5 166 c12 480 12 647 -2 672 -25 46 -15 178 21 277 6 16 19 15 53 -2z"/>
 <path d="M1103 2429 c-18 -5 -35 -14 -38 -20 -7 -11 354 -3 390 9 54 18 -290 29 -352 11z"/>
 <path d="M1888 2393 c17 -2 47 -2 65 0 17 2 3 4 -33 4 -36 0 -50 -2 -32 -4z"/>
 <path d="M2084 2383 c46 -4 47 -5 32 -22 -13 -14 -16 -34 -14 -87 3 -63 5 -69 26 -72 21 -3 32 13 13 20 -4 2 -5 12 -1 23 7 18 9 17 21 -10 7 -16 19 -38 28 -48 12 -15 12 -27 2 -85 -7 -37 -11 -96 -9 -132 3 -36 1 -224 -4 -419 -5 -195 -6 -356 -4 -358 3 -3 21 -6 41 -8 20 -2 38 -5 39 -7 1 -2 17 -26 35 -55 33 -52 76 -90 85 -74 3 5 4 115 2 245 l-3 237 28 36 c16 20 29 40 29 45 0 4 16 16 35 25 19 9 36 22 39 29 3 7 -17 54 -45 106 -27 51 -79 154 -115 228 -37 74 -79 153 -94 175 -15 22 -39 72 -54 110 -40 104 -36 100 -102 101 -51 1 -52 0 -10 -3z"/>
 <path d="M1535 2368 c-179 -19 -244 -29 -295 -44 -30 -9 -74 -17 -97 -19 -23 -1 -54 -6 -69 -9 -18 -5 -25 -3 -22 5 4 11 30 22 108 47 35 11 -13 13 -58 3 -33 -8 -58 -8 -82 -1 -19 5 -50 10 -69 10 l-34 0 7 -72 c4 -40 6 -87 6 -104 0 -18 5 -34 13 -37 11 -4 12 -15 3 -56 -7 -36 -7 -101 2 -224 7 -94 12 -206 12 -247 0 -124 12 -272 21 -258 6 9 9 7 9 -7 0 -34 116 -58 263 -53 112 3 137 -1 100 -17 -15 -6 -13 -9 12 -17 21 -6 57 -3 117 9 48 9 91 14 94 10 11 -10 2 -15 -36 -22 -19 -3 -60 -12 -91 -20 -38 -10 -110 -15 -220 -15 -167 0 -213 -5 -203 -21 3 -5 10 -7 15 -3 6 3 98 6 205 5 107 0 205 4 217 8 15 6 29 4 42 -5 24 -18 200 -20 211 -3 5 8 32 10 83 6 54 -4 97 0 146 12 l70 16 -5 190 c-5 184 -3 702 2 835 l3 65 -60 1 c-101 3 -199 15 -213 27 -16 13 -111 16 -207 5z m-1 -146 c11 -18 -12 -30 -68 -34 -53 -4 -63 -9 -90 -40 -81 -93 -97 -116 -107 -156 -8 -27 -22 -50 -40 -63 l-29 -20 0 39 c0 31 8 50 35 82 19 23 35 46 35 51 0 16 83 101 110 112 92 37 143 47 154 29z m178 -8 c23 -4 38 -13 41 -25 4 -15 17 -19 73 -21 l69 -3 3 -68 c2 -46 -1 -67 -8 -62 -5 3 -10 28 -10 55 0 54 0 54 -87 65 -29 4 -57 13 -64 21 -8 10 -33 14 -80 14 -55 0 -69 3 -69 15 0 16 61 20 132 9z m164 -366 c-8 -18 -23 -54 -34 -80 -16 -36 -32 -54 -79 -84 -32 -20 -64 -45 -71 -55 -11 -16 -26 -19 -87 -19 -42 0 -77 -5 -80 -11 -4 -6 -4 -35 0 -66 6 -51 8 -54 24 -39 14 13 41 16 127 16 60 0 124 4 142 9 31 9 85 -1 106 -20 11 -9 -66 -45 -128 -59 -54 -12 -220 -4 -281 13 -23 7 -117 12 -222 12 -198 0 -226 7 -187 45 16 16 42 22 129 30 171 16 182 18 205 50 25 35 37 39 134 44 84 5 107 16 193 94 46 41 93 130 93 175 0 16 6 38 13 50 11 20 12 18 15 -25 2 -27 -3 -62 -12 -80z m-611 -9 c6 -24 19 -61 29 -81 16 -31 26 -38 60 -44 60 -9 80 -22 65 -40 -20 -24 -71 -17 -111 16 -37 30 -78 124 -78 178 0 39 24 20 35 -29z m590 -570 c-44 -4 -118 -13 -165 -19 -47 -6 -110 -13 -140 -15 -53 -4 -54 -4 -15 6 62 15 253 36 330 36 l70 0 -80 -8z"/>
 <path d="M1400 1530 c36 -12 60 -12 60 0 0 6 -19 10 -42 9 -37 -1 -39 -2 -18 -9z"/>
 <path d="M1220 1513 c-94 -14 -95 -14 -76 -25 24 -14 159 -1 183 17 16 13 13 14 -32 13 -27 0 -61 -2 -75 -5z"/>
 <path d="M1660 1470 c0 -6 32 -10 75 -10 43 0 75 4 75 10 0 6 -32 10 -75 10 -43 0 -75 -4 -75 -10z"/>
 <path d="M2108 2150 c-4 -14 -7 -77 -7 -140 l2 -115 9 85 c10 99 7 210 -4 170z"/>
 <path d="M2101 1520 c-15 -32 -16 -208 -2 -243 21 -54 36 -26 39 73 2 70 -1 97 -12 109 -8 9 -16 27 -19 41 -2 14 -5 23 -6 20z"/>
 <path d="M888 1368 c-19 -23 -24 -53 -10 -62 4 -2 18 2 32 10 14 7 20 13 13 14 -6 0 -13 13 -15 30 l-3 29 -17 -21z"/>
 <path d="M950 1290 c14 -4 39 -8 55 -8 l30 0 -30 8 c-16 4 -41 8 -55 8 l-25 0 25 -8z"/>
 <path d="M1188 1253 c18 -2 45 -2 60 0 15 2 0 4 -33 4 -33 0 -45 -2 -27 -4z"/>
 <path d="M2099 1205 c-10 -10 -23 -12 -43 -7 -47 13 -184 -5 -222 -29 -18 -11 -39 -17 -45 -13 -8 5 -7 9 2 15 8 4 -8 6 -36 3 -28 -2 -173 -7 -324 -10 -206 -4 -281 -9 -301 -19 -21 -11 -36 -12 -65 -4 -20 6 -39 8 -43 5 -3 -3 2 -6 10 -6 9 0 18 -7 21 -14 3 -8 23 -20 44 -25 51 -14 316 -52 339 -49 26 3 113 -10 212 -33 45 -10 94 -19 107 -19 14 0 29 -8 35 -20 12 -23 61 -27 121 -10 49 14 224 27 246 19 10 -3 56 -9 102 -12 l83 -5 -33 31 c-18 18 -56 64 -85 104 -66 88 -104 118 -125 98z"/>
 </g>

</svg>