<!DOCTYPE svg PUBLIC "-//W3C//DTD SVG 20010904//EN" "http://www.w3.org/TR/2001/REC-SVG-20010904/DTD/svg10.dtd">
<svg version="1.0" xmlns="http://www.w3.org/2000/svg" width="335px" height="335px" viewBox="0 0 3350 3350" preserveAspectRatio="xMidYMid meet">
<g id="layer1" fill="#f5eca0" stroke="none">
 <path d="M1093 2424 c-3 -8 -1 -20 4 -25 10 -10 223 4 242 16 28 17 -10 25 -120 25 -99 0 -121 -3 -126 -16z"/>
 <path d="M2116 2371 c-24 -27 -34 -142 -13 -160 13 -10 18 -9 29 8 16 26 28 27 28 3 0 -10 6 -24 12 -30 10 -10 13 -73 13 -242 0 -132 4 -231 9 -232 12 -4 35 93 36 147 0 49 10 67 30 55 10 -6 22 -3 37 12 l23 21 24 -22 c35 -33 38 -13 9 54 -39 93 -61 136 -109 215 -12 19 -34 67 -49 105 -35 88 -48 100 -79 66z"/>
 <path d="M921 2356 c-6 -7 -9 -20 -7 -27 3 -8 7 -52 9 -99 2 -46 8 -85 13 -87 6 -2 7 -36 3 -81 -6 -63 -4 -79 8 -89 9 -7 19 -10 23 -8 4 3 11 49 15 102 8 104 15 133 25 93 9 -40 34 -31 40 14 4 28 11 41 27 47 13 5 25 4 28 -1 11 -17 73 -12 83 7 9 16 12 16 36 0 22 -15 33 -46 27 -77 -4 -26 -30 -81 -49 -104 -15 -20 -19 -33 -12 -40 12 -12 73 43 90 83 13 29 111 111 133 111 8 0 19 6 25 13 12 14 92 11 92 -4 0 -15 -48 -29 -79 -23 -40 8 -63 -7 -125 -84 -36 -44 -59 -84 -67 -115 -6 -26 -15 -50 -20 -53 -14 -8 -11 -36 6 -54 9 -10 17 -33 19 -51 4 -55 50 -112 98 -124 23 -5 43 -16 46 -22 7 -24 -30 -26 -74 -4 -51 26 -72 20 -51 -12 8 -12 16 -34 19 -49 4 -22 1 -28 -12 -28 -22 0 -44 -26 -34 -41 5 -8 29 -10 83 -6 71 6 78 9 106 41 33 39 48 43 154 50 69 5 96 15 114 44 4 6 14 12 21 12 25 0 96 88 96 118 0 34 -9 45 -24 32 -7 -5 -18 -5 -26 0 -11 7 -10 13 5 37 24 35 41 53 53 53 5 0 15 7 22 15 7 8 16 15 19 15 10 0 -5 -118 -17 -133 -5 -6 -13 -27 -17 -45 -7 -32 -49 -82 -70 -82 -6 0 -26 -13 -45 -29 -30 -25 -33 -30 -17 -36 10 -4 28 0 42 9 21 14 25 14 25 2 0 -9 -9 -24 -21 -35 -28 -26 -21 -55 16 -61 18 -3 30 -11 30 -20 0 -11 12 -16 42 -17 24 -1 50 -6 59 -11 16 -9 15 -11 -5 -21 -33 -18 -17 -29 39 -27 33 1 51 -3 55 -12 3 -7 10 -10 16 -6 8 5 10 33 5 96 -4 49 -7 181 -6 294 0 186 -2 205 -18 211 -9 4 -21 12 -25 20 -4 7 -14 13 -21 13 -8 0 -16 9 -19 21 -7 25 -27 16 -27 -12 0 -38 -19 -18 -22 24 l-3 42 -61 10 c-34 6 -69 16 -78 24 -20 17 -50 6 -44 -17 4 -15 -2 -17 -53 -14 -53 3 -58 6 -49 22 5 9 7 20 3 23 -3 4 0 13 7 22 7 8 11 16 9 16 -4 2 -23 4 -97 15 -25 4 -48 2 -54 -4 -10 -10 -48 -5 -48 7 0 3 7 18 14 33 9 18 11 30 5 34 -6 3 -8 12 -5 20 8 22 -25 30 -39 10 -9 -12 -15 -14 -20 -6 -8 14 -72 7 -149 -16 -72 -20 -122 -19 -129 5 -5 20 -79 37 -109 26 -9 -4 -19 -2 -23 4 -9 15 -20 14 -34 -3z m1049 -657 c0 -10 -4 -19 -10 -19 -5 0 -10 12 -10 26 0 14 4 23 10 19 6 -3 10 -15 10 -26z"/>
 <path d="M1455 2360 c-3 -5 0 -13 9 -16 21 -8 61 -1 61 11 0 14 -62 19 -70 5z"/>
 <path d="M1935 2330 c-8 -12 20 -24 35 -15 6 3 8 11 5 16 -8 12 -32 12 -40 -1z"/>
 <path d="M1985 2158 c-9 -24 -2 -93 10 -93 14 0 19 85 6 98 -7 7 -12 5 -16 -5z"/>
 <path d="M952 1821 c-10 -6 -12 -19 -5 -50 11 -56 27 -57 31 -2 4 47 -5 65 -26 52z"/>
 <path d="M2461 1675 c-13 -7 -37 -33 -53 -56 -15 -23 -37 -49 -49 -57 -11 -8 -19 -22 -17 -33 4 -26 20 -27 33 -3 29 54 68 106 83 111 26 9 52 35 46 44 -7 11 -13 10 -43 -6z"/>
 <path d="M962 1663 c-9 -4 -11 -32 -6 -121 3 -65 10 -125 15 -134 5 -9 9 -28 9 -41 0 -28 23 -52 44 -44 7 3 18 1 24 -5 12 -12 35 -1 26 13 -3 6 -12 8 -19 5 -8 -3 -19 2 -26 11 -11 12 -10 17 4 24 9 6 17 16 17 24 0 7 14 25 31 39 24 20 34 24 45 15 15 -12 38 -3 28 12 -3 5 -12 8 -21 7 -8 -2 -20 5 -26 14 -9 13 -7 21 6 36 35 39 -11 44 -60 6 -20 -15 -38 -23 -44 -17 -4 4 -11 41 -15 81 -7 75 -10 82 -32 75z"/>
 <path d="M1135 1560 c-3 -5 0 -13 9 -16 21 -8 61 -1 61 11 0 14 -62 19 -70 5z"/>
 <path d="M1546 1521 c-19 -7 -18 -8 4 -14 26 -7 43 0 35 14 -7 10 -13 10 -39 0z"/>
 <path d="M1365 1460 c-8 -13 20 -24 41 -16 8 3 12 10 9 16 -8 13 -42 13 -50 0z"/>
 <path d="M2084 1444 c-10 -38 1 -161 16 -179 28 -33 36 -11 41 110 1 11 -1 34 -4 50 -3 17 -6 33 -6 38 -1 4 -10 7 -21 7 -13 0 -22 -9 -26 -26z"/>
 <path d="M2348 1452 c-2 -8 -3 -47 -6 -210 -2 -117 -10 -131 -36 -67 -10 23 -25 37 -49 46 -33 12 -35 15 -39 66 -3 31 -12 61 -21 70 -15 15 -17 14 -27 -11 -5 -15 -10 -55 -10 -89 0 -47 -3 -58 -12 -49 -16 16 -43 15 -57 -2 -9 -11 -20 -12 -43 -5 -33 9 -52 4 -42 -12 3 -6 13 -8 21 -4 9 3 24 -2 34 -11 14 -12 22 -13 38 -4 17 9 26 7 51 -11 33 -25 36 -31 46 -103 6 -47 8 -49 61 -72 83 -37 96 -17 36 51 -47 52 -105 124 -115 141 -12 19 74 4 90 -15 7 -9 21 -35 33 -59 22 -47 62 -73 81 -54 9 9 9 32 1 91 -6 49 -7 115 -2 177 5 55 6 106 3 116 -5 17 -33 33 -36 20z"/>
 <path d="M1665 1430 c-8 -13 20 -24 41 -16 8 3 12 10 9 16 -8 13 -42 13 -50 0z"/>
 <path d="M876 1365 c-3 -9 1 -18 10 -22 19 -7 39 11 30 26 -10 16 -33 13 -40 -4z"/>
 <path d="M1976 1310 c-34 -4 -41 -10 -52 -42 -13 -39 -3 -61 18 -40 6 6 16 8 23 6 16 -7 72 64 59 74 -5 5 -27 5 -48 2z"/>
 <path d="M1384 1229 c-10 -17 13 -36 27 -22 12 12 4 33 -11 33 -5 0 -12 -5 -16 -11z"/>
 <path d="M1707 1174 c-11 -12 3 -24 27 -24 13 0 29 -7 36 -15 10 -12 16 -13 26 -4 8 6 14 9 14 5 0 -4 11 1 25 10 14 9 22 20 19 26 -3 5 -16 2 -30 -7 -22 -14 -27 -14 -46 0 -23 15 -60 20 -71 9z"/>
 <path d="M1465 1160 c-3 -5 0 -13 9 -16 21 -8 61 -1 61 11 0 14 -62 19 -70 5z"/>
 <path d="M1135 1150 c-3 -5 -19 -10 -35 -10 -52 0 -49 -43 3 -45 13 -1 29 -5 35 -9 17 -10 45 1 37 14 -3 5 -16 10 -27 10 -20 0 -20 1 -4 19 10 11 13 21 7 25 -5 4 -12 2 -16 -4z"/>
 <path d="M1355 1070 c-3 -5 0 -13 8 -16 23 -8 92 0 92 11 0 14 -92 19 -100 5z"/>
 <path d="M1555 1051 c-6 -11 13 -26 22 -17 3 3 12 1 19 -5 7 -6 18 -8 24 -4 14 9 1 28 -16 21 -7 -3 -16 -1 -19 4 -8 13 -22 13 -30 1z"/>
 <path d="M2163 1036 c-4 -8 -19 -16 -33 -18 -36 -5 -27 -20 19 -34 43 -12 56 -8 41 16 -4 7 -6 19 -3 26 7 18 -14 27 -24 10z"/>
 <path d="M1645 1031 c-6 -11 13 -26 22 -17 3 3 12 1 19 -5 7 -6 18 -8 24 -4 14 9 1 28 -16 21 -7 -3 -16 -1 -19 4 -8 13 -22 13 -30 1z"/>
 <path d="M1755 1011 c-8 -14 37 -43 49 -31 6 6 4 15 -4 25 -14 17 -36 20 -45 6z"/>
 <path d="M1926 991 c-4 -6 -13 -8 -20 -5 -17 6 -31 -12 -16 -21 5 -3 16 -3 23 2 6 4 17 8 22 8 14 0 19 19 7 23 -6 2 -13 -1 -16 -7z"/>
 </g>
<g id="layer2" fill="#f1ea61" stroke="none">
 <path d="M1092 2298 c-7 -7 -12 -9 -12 -5 0 4 -9 3 -21 -4 -15 -8 -18 -14 -10 -22 12 -12 -14 -36 -42 -37 -10 0 -22 -12 -27 -27 -6 -16 -14 -36 -20 -45 -6 -11 -6 -19 1 -23 14 -9 1 -95 -18 -116 -11 -13 -12 -36 -7 -110 4 -52 10 -98 14 -104 5 -5 6 -52 4 -104 -2 -61 1 -100 8 -108 8 -10 8 -17 0 -25 -8 -8 -8 -17 -1 -30 5 -10 8 -22 5 -26 -7 -12 31 -42 53 -42 10 0 24 7 31 15 9 11 16 13 23 6 7 -7 20 -2 39 14 24 20 41 25 87 25 44 0 60 4 74 20 10 12 29 20 46 20 35 0 46 13 26 30 -8 7 -15 18 -15 26 0 7 -20 53 -45 102 -51 101 -56 145 -24 186 29 37 12 54 -25 25 -15 -12 -30 -19 -33 -15 -11 10 19 90 38 104 31 22 60 87 50 113 -5 15 -3 32 5 48 13 25 10 46 -7 36 -5 -4 -24 5 -42 19 -41 31 -49 32 -72 6 -23 -25 -31 -25 -38 1 -5 17 -11 20 -32 17 -16 -4 -24 -1 -22 6 2 6 10 11 18 11 16 0 25 18 12 22 -5 2 -14 -2 -21 -9z"/>
 <path d="M2197 2183 c-8 -15 -2 -63 8 -63 12 0 16 58 5 65 -5 3 -10 2 -13 -2z"/>
 <path d="M2275 2111 c-4 -8 -1 -19 8 -28 19 -20 30 -1 13 22 -10 14 -15 15 -21 6z"/>
 <path d="M1875 2026 c-3 -9 -7 -23 -10 -32 -3 -10 -11 -13 -25 -9 -16 5 -22 0 -31 -22 -5 -15 -23 -41 -38 -58 -16 -16 -31 -41 -34 -55 -3 -14 -9 -35 -12 -47 -11 -34 22 -43 45 -13 12 16 23 20 38 16 11 -4 23 -2 27 4 3 6 10 8 15 5 10 -6 -22 -69 -52 -101 -29 -32 -8 -36 30 -6 21 18 33 38 35 59 2 17 9 38 15 46 13 16 6 28 -12 21 -16 -6 -6 97 11 118 25 29 33 66 18 78 -12 10 -16 9 -20 -4z"/>
 <path d="M2313 2028 c-4 -8 -24 -22 -44 -31 -23 -11 -39 -26 -43 -42 -3 -13 -15 -29 -26 -35 -24 -13 -26 -38 -5 -46 20 -8 19 -40 0 -48 -11 -4 -14 -13 -9 -30 3 -13 1 -27 -5 -30 -18 -12 -15 -395 4 -439 20 -49 20 -113 -1 -121 -26 -10 -5 -26 25 -20 26 5 32 1 55 -39 38 -64 52 -74 75 -53 26 24 48 130 32 159 -9 17 -10 47 -3 117 6 52 8 100 5 106 -11 29 82 164 113 164 12 0 24 22 24 45 0 8 -17 44 -37 81 -71 125 -83 147 -83 156 0 6 -9 21 -20 35 -11 14 -20 34 -20 43 0 26 -26 45 -37 28z"/>
 <path d="M1931 1947 c-10 -26 2 -328 14 -347 5 -8 12 -7 24 4 11 10 17 34 19 71 1 31 8 65 15 76 10 17 9 22 -7 34 -15 11 -20 32 -25 96 -6 85 -23 112 -40 66z"/>
 <path d="M2453 1934 c-6 -16 25 -57 37 -49 12 7 -1 53 -16 59 -8 3 -17 -1 -21 -10z"/>
 <path d="M1264 1846 c-4 -10 -2 -22 4 -28 8 -8 13 -7 18 6 4 10 2 22 -4 28 -8 8 -13 7 -18 -6z"/>
 <path d="M1287 1784 c-7 -13 15 -57 28 -56 6 0 16 -5 23 -10 9 -8 16 -8 24 0 8 8 6 13 -7 19 -11 4 -29 18 -40 32 -12 13 -24 20 -28 15z"/>
 <path d="M1565 1650 c-8 -12 20 -24 35 -15 6 3 8 11 5 16 -8 12 -32 12 -40 -1z"/>
 <path d="M1041 1066 c-9 -10 -9 -16 -1 -21 17 -10 37 12 24 25 -8 8 -15 6 -23 -4z"/>
 <path d="M1466 1011 c-3 -5 1 -14 8 -20 16 -13 32 2 21 19 -8 12 -22 13 -29 1z"/>
 <path d="M2055 910 c-3 -5 0 -13 8 -16 23 -9 112 0 110 11 -4 14 -110 19 -118 5z"/>
 </g>
<g id="layer3" fill="#edeadc" stroke="none">
 <path d="M1312 2432 c-38 -11 -25 -27 21 -27 31 0 42 4 42 15 0 17 -28 22 -63 12z"/>
 <path d="M1145 2420 c-3 -5 0 -13 9 -16 21 -8 61 -1 61 11 0 14 -62 19 -70 5z"/>
 <path d="M1558 2374 c-6 -5 -121 -15 -167 -14 -13 0 -29 -4 -35 -9 -6 -5 -22 -11 -36 -13 -33 -4 -32 -22 0 -26 33 -4 55 -54 37 -83 -26 -42 30 -46 106 -8 26 14 67 0 67 -22 0 -17 -5 -18 -38 -13 -28 4 -41 2 -51 -10 -11 -13 -9 -17 13 -26 14 -5 26 -16 26 -24 0 -17 34 -39 44 -29 3 3 6 20 6 36 l0 30 22 -29 c32 -42 38 -44 76 -28 19 7 45 11 58 8 14 -4 31 -1 39 6 26 22 17 48 -22 69 l-38 20 37 1 c27 0 40 -5 48 -20 8 -16 21 -20 58 -20 82 0 90 -5 94 -63 2 -29 0 -64 -5 -80 -5 -15 -7 -34 -3 -42 7 -19 33 -9 39 16 4 15 11 18 30 14 33 -9 42 7 42 80 0 33 6 97 13 143 7 45 10 86 7 91 -3 5 -38 10 -78 10 -79 1 -166 13 -210 30 -29 11 -169 15 -179 5z m77 -164 c4 -6 -7 -10 -25 -10 -18 0 -29 4 -25 10 3 6 15 10 25 10 10 0 22 -4 25 -10z"/>
 <path d="M931 2357 c-14 -18 -4 -27 30 -27 35 0 46 16 20 29 -26 14 -36 14 -50 -2z"/>
 <path d="M1013 2324 c-3 -8 -1 -20 4 -25 11 -11 56 18 48 32 -10 15 -45 10 -52 -7z"/>
 <path d="M2157 2304 c-3 -4 -2 -16 4 -26 8 -15 14 -17 22 -9 8 8 7 15 -4 26 -8 9 -18 13 -22 9z"/>
 <path d="M2104 2267 c-7 -20 -2 -47 11 -50 14 -3 19 43 6 56 -7 7 -12 6 -17 -6z"/>
 <path d="M934 2186 c-4 -10 -2 -22 4 -28 8 -8 13 -7 18 6 4 10 2 22 -4 28 -8 8 -13 7 -18 -6z"/>
 <path d="M2205 2188 c-8 -21 11 -58 30 -58 26 0 27 22 2 48 -22 22 -27 23 -32 10z"/>
 <path d="M1764 2139 c-6 -10 28 -29 50 -29 9 0 16 -4 16 -10 0 -5 6 -10 13 -10 8 0 13 10 12 23 -1 18 -9 23 -44 28 -23 3 -44 2 -47 -2z"/>
 <path d="M1314 1979 c-10 -17 13 -36 27 -22 12 12 4 33 -11 33 -5 0 -12 -5 -16 -11z"/>
 <path d="M1734 1759 c-10 -17 13 -36 27 -22 12 12 4 33 -11 33 -5 0 -12 -5 -16 -11z"/>
 <path d="M1731 1664 c-18 -13 -39 -31 -46 -40 -10 -14 -22 -16 -62 -10 -28 3 -63 2 -77 -4 -25 -9 -27 -14 -24 -62 3 -50 4 -53 28 -50 14 2 82 6 152 10 75 4 132 12 139 19 21 21 2 43 -36 43 -39 0 -42 5 -20 30 8 9 16 31 17 50 2 29 -1 35 -17 37 -11 1 -35 -9 -54 -23z"/>
 <path d="M1407 1643 c-4 -3 -7 -16 -7 -28 0 -11 -5 -26 -11 -32 -8 -8 -8 -13 1 -18 13 -8 83 62 75 76 -7 10 -48 12 -58 2z"/>
 <path d="M1865 1540 c-3 -6 1 -13 9 -16 21 -8 49 3 41 16 -8 13 -42 13 -50 0z"/>
 <path d="M1982 1518 c-7 -7 -12 -18 -12 -26 0 -9 -7 -13 -19 -9 -11 2 -52 -6 -91 -19 -82 -28 -178 -32 -285 -13 -39 7 -164 13 -283 14 l-213 2 -27 -28 c-15 -15 -35 -36 -45 -47 -53 -58 28 -92 220 -92 122 0 133 -2 143 -20 13 -25 61 -26 140 -5 50 13 56 13 68 -2 18 -25 15 -33 -12 -33 -26 0 -42 -25 -24 -36 24 -15 157 -17 174 -3 11 9 49 13 125 14 73 0 112 4 120 13 7 6 23 12 35 12 13 0 25 4 28 8 7 12 -13 265 -22 274 -5 5 -13 3 -20 -4z"/>
 <path d="M2094 1449 c-3 -6 3 -20 14 -32 19 -19 22 -19 28 -4 11 29 -26 61 -42 36z"/>
 <path d="M2115 1338 c-9 -22 -2 -68 10 -71 14 -3 19 63 6 76 -7 7 -12 5 -16 -5z"/>
 <path d="M1415 1236 c-19 -14 -19 -15 -2 -21 22 -9 50 2 45 17 -6 18 -22 20 -43 4z"/>
 <path d="M1911 1199 c-29 -5 -66 -19 -83 -30 -25 -18 -33 -20 -52 -10 -26 14 -18 14 -360 6 -251 -6 -272 -8 -299 -27 -24 -17 -26 -23 -15 -33 14 -15 202 -48 258 -47 51 1 199 -18 245 -33 22 -7 72 -18 112 -25 57 -10 72 -17 77 -33 4 -17 10 -19 48 -12 24 4 102 15 173 25 114 16 133 17 152 5 15 -10 36 -13 67 -9 58 8 77 27 44 45 -13 7 -29 12 -36 10 -10 -1 -12 4 -7 18 7 24 -14 68 -57 116 -24 28 -38 36 -67 36 -20 0 -61 2 -91 4 -30 2 -79 -1 -109 -6z"/>
 </g>
<g id="layer4" fill="#0f0808" stroke="none">
 <path d="M836 2492 c-16 -26 -35 -107 -41 -173 -5 -59 -3 -84 11 -118 15 -39 17 -81 12 -452 -6 -391 -5 -410 13 -433 10 -13 19 -31 19 -40 0 -9 17 -24 38 -35 21 -11 44 -27 51 -35 8 -9 20 -16 27 -16 10 0 14 -12 14 -38 0 -33 6 -43 46 -76 34 -29 52 -37 71 -33 31 6 113 -17 164 -45 35 -19 37 -19 63 -3 37 25 135 15 155 -14 15 -23 43 -26 90 -10 43 15 114 3 148 -25 16 -12 55 -30 88 -40 33 -11 70 -23 82 -29 15 -7 35 -5 69 7 36 12 87 16 212 16 173 0 229 9 259 43 16 17 18 36 14 156 -9 278 -8 283 18 318 18 24 22 39 18 62 -6 29 -5 30 22 25 22 -5 36 1 62 24 29 26 33 35 33 81 0 45 -4 55 -30 79 -20 18 -35 46 -43 77 -7 27 -17 55 -22 61 -6 8 -4 14 6 18 22 8 18 29 -11 56 -17 17 -23 31 -20 46 6 22 -19 51 -61 73 -13 6 -32 28 -43 49 -11 20 -34 59 -50 85 -16 26 -33 60 -36 75 -4 15 -17 48 -30 74 -13 26 -24 56 -24 67 0 40 -43 58 -169 72 -101 11 -120 15 -124 31 -4 15 -16 18 -72 18 -36 0 -96 -5 -133 -11 -48 -8 -103 -8 -187 -1 -74 6 -211 6 -355 1 -198 -7 -239 -6 -264 6 -32 16 -82 20 -90 7z m890 -141 c15 -14 123 -31 199 -31 39 0 74 -2 76 -5 3 -2 2 -35 -3 -72 -10 -84 -11 -481 -2 -743 l7 -195 -44 -2 c-24 -1 -113 -7 -198 -14 -141 -12 -154 -11 -163 4 -11 21 -26 21 -116 0 -73 -17 -74 -17 -90 4 -16 20 -28 22 -167 26 -82 2 -166 9 -185 15 -33 11 -37 16 -48 70 -6 32 -16 161 -22 287 -6 127 -12 239 -15 250 -2 11 0 61 5 110 6 55 6 93 0 100 -5 6 -13 51 -16 98 l-7 87 34 -1 c48 -1 64 -10 64 -39 0 -22 4 -25 30 -22 17 2 50 4 75 6 25 1 54 7 65 13 64 34 493 79 521 54z m437 -33 c8 -24 23 -61 32 -83 14 -33 15 -37 2 -26 -9 7 -17 22 -19 34 -2 18 -9 22 -36 20 -32 -1 -33 0 -27 30 16 82 26 87 48 25z m164 -328 c42 -85 96 -191 121 -235 42 -75 44 -80 26 -90 -31 -17 -91 -84 -109 -122 -13 -26 -16 -49 -11 -82 11 -80 12 -391 1 -388 -5 2 -28 30 -51 63 -35 52 -45 60 -80 64 l-39 5 3 255 c2 140 8 283 12 318 5 35 6 94 3 131 -3 37 -2 116 2 176 l7 109 19 -25 c11 -13 54 -94 96 -179z m-207 -611 c0 -37 -4 -58 -10 -54 -5 3 -10 31 -10 61 0 30 5 54 10 54 6 0 10 -27 10 -61z m-176 -129 c-13 -13 -119 -24 -141 -14 -13 6 5 10 57 14 41 4 79 7 85 8 5 1 5 -2 -1 -8z m-249 -30 c-3 -5 -22 -10 -41 -10 -21 0 -33 4 -29 10 3 6 22 10 41 10 21 0 33 -4 29 -10z m365 -42 c16 -10 24 -10 41 0 27 17 40 5 119 -100 l58 -76 -44 -4 c-25 -2 -52 1 -61 6 -19 10 -178 0 -278 -18 -64 -12 -72 -12 -90 5 -12 10 -54 25 -95 33 -41 8 -106 22 -145 30 -38 9 -95 16 -125 16 -47 0 -208 20 -289 36 -21 4 -22 7 -10 19 11 11 62 15 249 16 129 1 261 6 293 11 48 7 62 6 87 -9 28 -16 31 -16 68 5 62 35 187 51 222 30z"/>
 <path d="M1406 2225 c-53 -20 -120 -77 -139 -118 -9 -18 -28 -45 -41 -58 -45 -45 -63 -138 -31 -157 9 -4 19 -30 24 -58 13 -78 45 -139 88 -168 59 -41 133 -32 133 15 0 24 -22 39 -70 47 -37 6 -45 13 -66 52 -13 25 -24 59 -24 76 0 17 -7 37 -15 44 -12 10 -12 15 -1 33 8 12 17 35 20 51 7 29 87 137 122 167 9 8 44 16 78 19 60 5 61 5 61 35 0 29 -2 30 -50 32 -27 1 -68 -4 -89 -12z"/>
 <path d="M1576 2227 c-35 -25 -13 -44 58 -49 37 -3 73 -12 82 -19 9 -8 44 -19 78 -24 l61 -10 6 -48 c11 -99 59 -75 59 30 0 73 -10 83 -86 83 -33 0 -54 6 -68 19 -28 25 -163 38 -190 18z"/>
 <path d="M1856 1968 c-9 -12 -16 -40 -16 -61 0 -71 -53 -148 -151 -221 -31 -23 -52 -28 -134 -35 -96 -8 -98 -9 -129 -45 l-31 -36 -142 -13 c-148 -14 -173 -23 -173 -62 0 -46 20 -50 208 -47 101 2 187 -1 205 -7 61 -20 267 -30 324 -15 115 30 160 68 111 95 -23 13 -285 15 -355 3 -31 -6 -33 -5 -33 24 0 40 10 45 82 43 55 -2 63 1 92 29 17 16 51 45 76 63 24 18 50 44 57 57 45 94 51 112 54 176 3 57 1 69 -13 72 -9 2 -23 -7 -32 -20z"/>
 </g>
<g id="layer5" fill="#eed822" stroke="none">
 <path d="M1425 3284 c-373 -56 -696 -220 -945 -481 -52 -55 -121 -136 -154 -181 -116 -164 -215 -393 -263 -612 -26 -123 -26 -517 1 -640 51 -235 153 -465 285 -640 91 -121 241 -269 359 -354 164 -116 393 -215 612 -263 69 -15 129 -18 320 -18 191 0 251 3 320 18 646 141 1116 611 1256 1257 27 123 27 517 1 640 -139 637 -598 1103 -1232 1251 -74 17 -130 21 -310 24 -121 2 -233 1 -250 -1z m-511 -819 c26 -13 67 -14 266 -7 136 4 288 4 360 -2 88 -6 149 -6 206 2 116 17 157 16 171 -6 9 -15 35 -21 127 -31 123 -14 166 -33 166 -72 0 -11 11 -41 24 -67 13 -26 26 -59 30 -74 3 -15 20 -49 36 -75 16 -26 38 -64 49 -84 11 -20 36 -46 56 -57 19 -12 35 -29 35 -39 0 -10 9 -29 20 -43 25 -32 25 -36 0 -43 -26 -7 -25 -23 4 -50 13 -12 31 -47 40 -78 10 -38 24 -62 41 -73 19 -13 25 -25 25 -53 0 -51 -32 -83 -82 -83 -43 0 -56 -16 -39 -48 8 -16 6 -26 -12 -48 -24 -31 -26 -75 -17 -329 2 -60 1 -120 -4 -132 -13 -39 -83 -53 -282 -57 -99 -2 -186 -6 -195 -10 -23 -10 -170 32 -195 55 -39 36 -141 51 -200 29 -23 -9 -31 -7 -54 15 -23 22 -35 25 -96 25 -38 0 -75 -4 -82 -9 -8 -5 -37 2 -75 17 -41 17 -82 26 -119 26 -38 1 -58 5 -58 13 0 6 -13 21 -30 33 -23 16 -30 29 -30 53 0 34 -32 67 -98 101 -17 9 -32 23 -32 32 0 8 -10 28 -21 44 -21 27 -22 36 -15 152 3 68 7 251 7 408 0 232 -3 292 -15 321 -17 41 -13 127 11 198 22 70 24 71 77 46z"/>
 <path d="M1192 1761 l-21 -29 38 -43 c50 -57 65 -46 39 28 -11 32 -24 61 -27 66 -4 4 -17 -6 -29 -22z"/>
 <path d="M2401 1671 c-8 -14 -7 -22 4 -31 12 -10 16 -8 24 11 14 39 -9 56 -28 20z"/>
 </g>

</svg>